<svg height="512" viewBox="0 0 25 24" width="512" xmlns="http://www.w3.org/2000/svg"><g fill-rule="evenodd"><path d="m12.5 3.5c-1.3579 0-2.64012.31805-3.77748.88328-.68751.34166-1.32242.77381-1.88906 1.28097-1.73976 1.55712-2.83346 3.81838-2.83346 6.33575 0 4.6944 3.80558 8.5 8.5 8.5 4.6944 0 8.5-3.8056 8.5-8.5 0-2.51737-1.0937-4.77863-2.8335-6.33575-.2057-.18417-.2232-.50026-.0391-.70603.1842-.20576.5003-.22327.7061-.03911 1.9427 1.7388 3.1665 4.26726 3.1665 7.08089 0 5.2467-4.2533 9.5-9.5 9.5-5.24671 0-9.5-4.2533-9.5-9.5 0-2.81363 1.2238-5.34209 3.16654-7.08089.63284-.5664 1.34224-1.04934 2.11094-1.43135 1.27256-.6324 2.70672-.98776 4.22252-.98776.2761 0 .5.22386.5.5s-.2239.5-.5.5z"/><path d="m18.2929 4.79282c.2761 0 .5.22386.5.5v2.82842c0 .27615-.2239.5-.5.5-.2762 0-.5-.22385-.5-.5v-2.82842c0-.27614.2238-.5.5-.5z"/><path d="m17.7929 5.29295c0 .27614.2238.5.5.5h2.8284c.2761 0 .5-.22386.5-.5s-.2239-.5-.5-.5h-2.8284c-.2762 0-.5.22386-.5.5z"/><path d="m12.5 7.5c-.9546 0-1.75.79733-1.75 1.80771 0 1.01039.7954 1.80769 1.75 1.80769s1.75-.7973 1.75-1.80769c0-1.01038-.7954-1.80771-1.75-1.80771zm-2.75 1.80771c0-1.53865 1.2194-2.80771 2.75-2.80771s2.75 1.26906 2.75 2.80771c0 1.53859-1.2194 2.80769-2.75 2.80769s-2.75-1.2691-2.75-2.80769zm-1.25 5.31369v1.2675c0 .3495.27303.6111.58334.6111h6.83336c.3103 0 .5833-.2616.5833-.6111v-1.2675c-2.5033-1.3558-5.4967-1.3558-8 0zm-.49842-.8673c2.81222-1.5328 6.18462-1.5328 8.99682 0 .3129.1705.5016.4994.5016.85v1.2848c0 .8778-.697 1.6111-1.5833 1.6111h-6.83336c-.88631 0-1.58334-.7333-1.58334-1.6111v-1.2848c0-.3506.1887-.6795.50158-.85z"/></g></svg>