<?xml version="1.0"?>
<svg xmlns="http://www.w3.org/2000/svg" xmlns:xlink="http://www.w3.org/1999/xlink" xmlns:svgjs="http://svgjs.com/svgjs" version="1.1" width="512" height="512" x="0" y="0" viewBox="0 0 512 512" style="enable-background:new 0 0 512 512" xml:space="preserve" class=""><g><g xmlns="http://www.w3.org/2000/svg"><path d="m321.536 383.748-65.535 49.31-65.535-49.31-170.453 128.252h471.974z" fill="#3aadf6" data-original="#000000" style="" class=""/><path d="m165.517 364.976-116.52-87.671v-72.638h-48.997v284.848z" fill="#3aadf6" data-original="#000000" style="" class=""/><path d="m462.997 277.309-116.513 87.667 165.516 124.539v-284.848h-49.003z" fill="#3aadf6" data-original="#000000" style="" class=""/><path d="m329.905 164.67c0-10.954-2.257-21.389-6.32-30.873l-68.273 73.335-53.801-54.25 21.301-21.125 31.817 32.082 51.561-55.385c-14.19-13.871-33.582-22.445-54.946-22.445-43.374 0-78.661 35.287-78.661 78.661s35.287 78.661 78.661 78.661c43.374.001 78.661-35.287 78.661-78.661z" fill="#3aadf6" data-original="#000000" style="" class=""/><path d="m256.001 395.514 176.996-133.176v-262.338h-354v262.334zm-113.419-230.844c0-59.916 48.745-108.661 108.661-108.661 29.251 0 55.836 11.622 75.39 30.486l16.805-18.051 21.958 20.441-20.037 21.523c9.247 15.977 14.546 34.512 14.546 54.262 0 59.916-48.745 108.661-108.661 108.661-59.916.001-108.662-48.745-108.662-108.661z" fill="#3aadf6" data-original="#000000" style="" class=""/></g></g></svg>
