<svg width="100" height="87" viewBox="0 0 100 87" fill="none" xmlns="http://www.w3.org/2000/svg">
<path d="M95.254 48.7698C98.8513 46.1756 98.8513 40.82 95.254 38.2257L56.5671 10.326C52.268 7.22559 46.2651 10.2976 46.2651 15.598L46.2651 71.3975C46.2651 76.6979 52.268 79.7699 56.5671 76.6696L95.254 48.7698Z" stroke="#90CDF4" stroke-width="3"/>
<path d="M10.8713 45.1915C11.4096 46.1599 11.4096 47.3377 10.8713 48.3061C9.26452 51.1975 4.86319 50.0566 4.86319 46.7488C4.86319 43.441 9.26452 42.3001 10.8713 45.1915Z" stroke="#90CDF4" stroke-width="3"/>
<path d="M22.5417 49.3807C20.9515 47.9865 20.9515 45.5113 22.5417 44.1171L32.659 35.2471C34.9213 33.2637 38.4663 34.8703 38.4663 37.8789V55.6189C38.4663 58.6275 34.9213 60.2341 32.659 58.2506L22.5417 49.3807Z" stroke="#90CDF4" stroke-width="3"/>
</svg>
